<svg width="16" height="16" viewBox="0 0 16 16" fill="none" xmlns="http://www.w3.org/2000/svg">
<circle cx="8" cy="8" r="8" fill="#111111"/>
<path d="M7.37336 12.12C6.97336 12.12 6.59669 12.0467 6.24336 11.9C5.89669 11.7533 5.59669 11.5467 5.34336 11.28C5.09669 11.0133 4.92003 10.7 4.81336 10.34L5.81336 9.96C5.94669 10.3133 6.15003 10.5867 6.42336 10.78C6.69669 10.9733 7.01336 11.07 7.37336 11.07C7.66669 11.07 7.92003 11.0133 8.13336 10.9C8.35336 10.7867 8.52336 10.6267 8.64336 10.42C8.77003 10.2133 8.83336 9.96333 8.83336 9.67C8.83336 9.38333 8.77003 9.13667 8.64336 8.93C8.52336 8.72333 8.35336 8.56667 8.13336 8.46C7.92003 8.35333 7.66669 8.3 7.37336 8.3C7.25336 8.3 7.13003 8.31 7.00336 8.33C6.88336 8.35 6.77669 8.37667 6.68336 8.41L6.42336 7.86L8.38336 5.55H5.21336V4.55H9.70336V5.5L7.78336 7.8L7.75336 7.42C8.20003 7.42667 8.59336 7.52667 8.93336 7.72C9.27336 7.90667 9.53669 8.16667 9.72336 8.5C9.91669 8.82667 10.0134 9.20667 10.0134 9.64C10.0134 10.1067 9.90003 10.53 9.67336 10.91C9.44669 11.2833 9.13336 11.58 8.73336 11.8C8.34003 12.0133 7.88669 12.12 7.37336 12.12Z" fill="white"/>
</svg>
