<svg width="16" height="16" viewBox="0 0 16 16" fill="none" xmlns="http://www.w3.org/2000/svg">
<circle cx="8" cy="8" r="8" fill="#111111"/>
<path d="M5.51172 12V11.15L7.55172 8.97C7.95172 8.54333 8.26505 8.2 8.49172 7.94C8.72505 7.67333 8.89172 7.44 8.99172 7.24C9.09839 7.04 9.15172 6.83 9.15172 6.61C9.15172 6.25 9.04172 5.97333 8.82172 5.78C8.60172 5.58 8.31839 5.48 7.97172 5.48C7.61172 5.48 7.30172 5.58333 7.04172 5.79C6.78172 5.99 6.60172 6.28333 6.50172 6.67L5.46172 6.37C5.54172 5.97667 5.70172 5.63667 5.94172 5.35C6.18172 5.05667 6.47505 4.83 6.82172 4.67C7.17505 4.51 7.55505 4.43 7.96172 4.43C8.43505 4.43 8.84839 4.52 9.20172 4.7C9.55505 4.87333 9.82839 5.11667 10.0217 5.43C10.2217 5.74333 10.3217 6.10667 10.3217 6.52C10.3217 6.79333 10.2684 7.06 10.1617 7.32C10.0617 7.57333 9.90505 7.84333 9.69172 8.13C9.47839 8.41 9.20505 8.72667 8.87172 9.08L7.07172 11H10.4617V12H5.51172Z" fill="white"/>
</svg>
