<svg width="33" height="32" viewBox="0 0 33 32" fill="none" xmlns="http://www.w3.org/2000/svg">
  <path d="M28.5 12.9999H27.4538C27.2025 10.2685 25.9398 7.72952 23.9134 5.88094C21.8869 4.03236 19.2429 3.00757 16.5 3.00757C13.7571 3.00757 11.1131 4.03236 9.08664 5.88094C7.0602 7.72952 5.79752 10.2685 5.54625 12.9999H4.5C4.23478 12.9999 3.98043 13.1053 3.79289 13.2928C3.60536 13.4803 3.5 13.7347 3.5 13.9999C3.50439 16.3781 4.15887 18.7098 5.39264 20.7428C6.62641 22.7759 8.39253 24.433 10.5 25.5349V25.9999C10.5 26.5304 10.7107 27.0391 11.0858 27.4141C11.4609 27.7892 11.9696 27.9999 12.5 27.9999H20.5C21.0304 27.9999 21.5391 27.7892 21.9142 27.4141C22.2893 27.0391 22.5 26.5304 22.5 25.9999V25.5349C24.6075 24.433 26.3736 22.7759 27.6074 20.7428C28.8411 18.7098 29.4956 16.3781 29.5 13.9999C29.5 13.7347 29.3946 13.4803 29.2071 13.2928C29.0196 13.1053 28.7652 12.9999 28.5 12.9999ZM25.4425 12.9999H19.015C20.2274 11.181 22.0616 9.86681 24.1737 9.30367C24.8643 10.427 25.2976 11.6893 25.4425 12.9999ZM22.185 7.02867C22.4142 7.21617 22.6338 7.41408 22.8438 7.62242C20.1817 8.55886 17.9819 10.4834 16.7 12.9974H13.0125C13.6375 11.2455 14.7882 9.72917 16.3073 8.65572C17.8264 7.58227 19.6399 7.004 21.5 6.99992C21.7288 6.99992 21.9575 7.01117 22.185 7.02867ZM16.5 4.99992C17.3025 5.00045 18.1012 5.10849 18.875 5.32117C16.9905 5.78863 15.2626 6.74459 13.8653 8.09269C12.4681 9.44079 11.4509 11.1334 10.9163 12.9999H7.5575C7.80556 10.801 8.85415 8.77025 10.5034 7.29484C12.1526 5.81944 14.2871 5.00255 16.5 4.99992ZM21.0825 23.9999C20.9081 24.0801 20.7604 24.2087 20.6571 24.3705C20.5538 24.5323 20.4993 24.7205 20.5 24.9124V25.9999H12.5V24.9124C12.5007 24.7205 12.4462 24.5323 12.3429 24.3705C12.2396 24.2087 12.0919 24.0801 11.9175 23.9999C10.1589 23.1907 8.6441 21.9331 7.52513 20.3534C6.40617 18.7737 5.72242 16.9274 5.5425 14.9999H27.4538C27.2742 16.927 26.591 18.773 25.4727 20.3527C24.3544 21.9323 22.8404 23.1902 21.0825 23.9999Z" fill="#FF5800"/>
</svg>